<svg xmlns="http://www.w3.org/2000/svg" version="1.1" xmlns:xlink="http://www.w3.org/1999/xlink" xmlns:svgjs="http://svgjs.dev/svgjs" width="1000" height="265" viewBox="0 0 1000 265"><g transform="matrix(1,0,0,1,-0.6060606060606233,-0.3975822570048706)"><svg viewBox="0 0 396 105" data-background-color="#ffffff" preserveAspectRatio="xMidYMid meet" height="265" width="1000" xmlns="http://www.w3.org/2000/svg" xmlns:xlink="http://www.w3.org/1999/xlink"><g id="tight-bounds" transform="matrix(1,0,0,1,0.2400000000000091,0.1575325923981552)"><svg viewBox="0 0 395.52 104.68493481520368" height="104.68493481520368" width="395.52"><g><svg viewBox="0 0 397.4975999999999 105.20835948927967" height="104.68493481520368" width="395.52"><g><rect width="397.4975999999999" height="3.222393095704071" x="0" y="57.817889361972036" fill="#ee3e38" opacity="1" stroke-width="0" stroke="transparent" fill-opacity="1" class="rect-i$-0" data-fill-palette-color="secondary" rx="1%" id="i$-0" data-palette-color="#ee3e38"></rect></g><g transform="matrix(1,0,0,1,0.9887999999999693,69.47586647784384)"><svg viewBox="0 0 395.52 35.73249301143583" height="35.73249301143583" width="395.52"><g id="textblocktransform"><svg viewBox="0 0 395.52 35.73249301143583" height="35.73249301143583" width="395.52" id="textblock"><g><svg viewBox="0 0 395.52 35.73249301143583" height="35.73249301143583" width="395.52"><g transform="matrix(1,0,0,1,0,0)"><svg width="395.52" viewBox="3.75 -35.2 393.47 35.550000000000004" height="35.73249301143583" data-palette-color="#ee3e38"><path d="M25.8-34.75L31.5-34.75 31.5 0 25.8 0 25.8-15.2 9.45-15.2 9.45 0 3.75 0 3.75-34.75 9.45-34.75 9.45-19.85 25.8-19.85 25.8-34.75ZM54.85 0.35Q50 0.35 45.92-1.93 41.85-4.2 39.47-8.28 37.1-12.35 37.1-17.45L37.1-17.45Q37.1-22.55 39.47-26.6 41.85-30.65 45.92-32.93 50-35.2 54.85-35.2L54.85-35.2Q59.75-35.2 63.82-32.93 67.9-30.65 70.25-26.6 72.6-22.55 72.6-17.45L72.6-17.45Q72.6-12.35 70.25-8.28 67.9-4.2 63.82-1.93 59.75 0.35 54.85 0.35L54.85 0.35ZM54.85-4.6Q58.3-4.6 61-6.18 63.7-7.75 65.22-10.68 66.75-13.6 66.75-17.45L66.75-17.45Q66.75-21.3 65.22-24.2 63.7-27.1 61-28.65 58.3-30.2 54.85-30.2L54.85-30.2Q51.4-30.2 48.7-28.65 46-27.1 44.47-24.2 42.95-21.3 42.95-17.45L42.95-17.45Q42.95-13.6 44.47-10.68 46-7.75 48.7-6.18 51.4-4.6 54.85-4.6L54.85-4.6ZM78.15-34.75L83.85-34.75 83.85-12.6Q83.85-8.65 85.92-6.65 88-4.65 91.7-4.65L91.7-4.65Q95.45-4.65 97.52-6.65 99.6-8.65 99.6-12.6L99.6-12.6 99.6-34.75 105.3-34.75 105.3-12.7Q105.3-8.45 103.45-5.5 101.6-2.55 98.5-1.1 95.4 0.35 91.65 0.35L91.65 0.35Q87.9 0.35 84.82-1.1 81.75-2.55 79.95-5.5 78.15-8.45 78.15-12.7L78.15-12.7 78.15-34.75ZM124.14 0.35Q120.64 0.35 117.84-0.88 115.04-2.1 113.44-4.35 111.84-6.6 111.84-9.6L111.84-9.6 117.94-9.6Q118.14-7.35 119.72-5.9 121.29-4.45 124.14-4.45L124.14-4.45Q127.09-4.45 128.74-5.88 130.39-7.3 130.39-9.55L130.39-9.55Q130.39-11.3 129.37-12.4 128.34-13.5 126.82-14.1 125.29-14.7 122.59-15.4L122.59-15.4Q119.19-16.3 117.07-17.23 114.94-18.15 113.44-20.1 111.94-22.05 111.94-25.3L111.94-25.3Q111.94-28.3 113.44-30.55 114.94-32.8 117.64-34 120.34-35.2 123.89-35.2L123.89-35.2Q128.94-35.2 132.17-32.68 135.39-30.15 135.74-25.75L135.74-25.75 129.44-25.75Q129.29-27.65 127.64-29 125.99-30.35 123.29-30.35L123.29-30.35Q120.84-30.35 119.29-29.1 117.74-27.85 117.74-25.5L117.74-25.5Q117.74-23.9 118.72-22.88 119.69-21.85 121.19-21.25 122.69-20.65 125.29-19.95L125.29-19.95Q128.74-19 130.92-18.05 133.09-17.1 134.62-15.13 136.14-13.15 136.14-9.85L136.14-9.85Q136.14-7.2 134.72-4.85 133.29-2.5 130.57-1.07 127.84 0.35 124.14 0.35L124.14 0.35ZM162.09-30.15L148.59-30.15 148.59-19.95 160.59-19.95 160.59-15.3 148.59-15.3 148.59-4.65 162.09-4.65 162.09 0 142.89 0 142.89-34.8 162.09-34.8 162.09-30.15ZM204.14-34.75L209.84-34.75 209.84 0 204.14 0 204.14-15.2 187.79-15.2 187.79 0 182.09 0 182.09-34.75 187.79-34.75 187.79-19.85 204.14-19.85 204.14-34.75ZM233.18 0.35Q228.33 0.35 224.26-1.93 220.18-4.2 217.81-8.28 215.43-12.35 215.43-17.45L215.43-17.45Q215.43-22.55 217.81-26.6 220.18-30.65 224.26-32.93 228.33-35.2 233.18-35.2L233.18-35.2Q238.08-35.2 242.16-32.93 246.23-30.65 248.58-26.6 250.93-22.55 250.93-17.45L250.93-17.45Q250.93-12.35 248.58-8.28 246.23-4.2 242.16-1.93 238.08 0.35 233.18 0.35L233.18 0.35ZM233.18-4.6Q236.63-4.6 239.33-6.18 242.03-7.75 243.56-10.68 245.08-13.6 245.08-17.45L245.08-17.45Q245.08-21.3 243.56-24.2 242.03-27.1 239.33-28.65 236.63-30.2 233.18-30.2L233.18-30.2Q229.73-30.2 227.03-28.65 224.33-27.1 222.81-24.2 221.28-21.3 221.28-17.45L221.28-17.45Q221.28-13.6 222.81-10.68 224.33-7.75 227.03-6.18 229.73-4.6 233.18-4.6L233.18-4.6ZM267.98 0.35Q264.48 0.35 261.68-0.88 258.88-2.1 257.28-4.35 255.68-6.6 255.68-9.6L255.68-9.6 261.78-9.6Q261.98-7.35 263.56-5.9 265.13-4.45 267.98-4.45L267.98-4.45Q270.93-4.45 272.58-5.88 274.23-7.3 274.23-9.55L274.23-9.55Q274.23-11.3 273.21-12.4 272.18-13.5 270.66-14.1 269.13-14.7 266.43-15.4L266.43-15.4Q263.03-16.3 260.91-17.23 258.78-18.15 257.28-20.1 255.78-22.05 255.78-25.3L255.78-25.3Q255.78-28.3 257.28-30.55 258.78-32.8 261.48-34 264.18-35.2 267.73-35.2L267.73-35.2Q272.78-35.2 276.01-32.68 279.23-30.15 279.58-25.75L279.58-25.75 273.28-25.75Q273.13-27.65 271.48-29 269.83-30.35 267.13-30.35L267.13-30.35Q264.68-30.35 263.13-29.1 261.58-27.85 261.58-25.5L261.58-25.5Q261.58-23.9 262.56-22.88 263.53-21.85 265.03-21.25 266.53-20.65 269.13-19.95L269.13-19.95Q272.58-19 274.76-18.05 276.93-17.1 278.46-15.13 279.98-13.15 279.98-9.85L279.98-9.85Q279.98-7.2 278.56-4.85 277.13-2.5 274.41-1.07 271.68 0.35 267.98 0.35L267.98 0.35ZM284.93-34.75L309.18-34.75 309.18-30.1 299.93-30.1 299.93 0 294.23 0 294.23-30.1 284.93-30.1 284.93-34.75ZM314.93-34.75L320.63-34.75 320.63 0 314.93 0 314.93-34.75ZM356.67-34.8L356.67 0 350.97 0 333.82-25.95 333.82 0 328.12 0 328.12-34.8 333.82-34.8 350.97-8.9 350.97-34.8 356.67-34.8ZM396.17-24.75L389.32-24.75Q387.97-27.35 385.57-28.68 383.17-30 380.02-30L380.02-30Q376.57-30 373.87-28.45 371.17-26.9 369.65-24.05 368.12-21.2 368.12-17.45L368.12-17.45Q368.12-13.7 369.65-10.83 371.17-7.95 373.87-6.4 376.57-4.85 380.02-4.85L380.02-4.85Q384.67-4.85 387.57-7.45 390.47-10.05 391.12-14.5L391.12-14.5 378.07-14.5 378.07-19.05 397.22-19.05 397.22-14.6Q396.67-10.55 394.35-7.15 392.02-3.75 388.3-1.73 384.57 0.3 380.02 0.3L380.02 0.3Q375.12 0.3 371.07-1.98 367.02-4.25 364.65-8.3 362.27-12.35 362.27-17.45L362.27-17.45Q362.27-22.55 364.65-26.6 367.02-30.65 371.1-32.93 375.17-35.2 380.02-35.2L380.02-35.2Q385.57-35.2 389.9-32.48 394.22-29.75 396.17-24.75L396.17-24.75Z" opacity="1" transform="matrix(1,0,0,1,0,0)" fill="#ee3e38" class="wordmark-text-0" data-fill-palette-color="primary" id="text-0"></path></svg></g></svg></g></svg></g></svg></g><g transform="matrix(1,0,0,1,164.02331256829183,0)"><svg viewBox="0 0 69.45097486341623 49.38230534180431" height="49.38230534180431" width="69.45097486341623"><g><svg xmlns="http://www.w3.org/2000/svg" xmlns:xlink="http://www.w3.org/1999/xlink" version="1.1" x="8.000000000000004" y="0" viewBox="3.687 5.168 42.223 39.009" enable-background="new 0 0 50 50" xml:space="preserve" height="49.38230534180431" width="53.45097486341623" class="icon-icon-0" data-fill-palette-color="accent" id="icon-0"><polygon points="45.91,26.078 40.467,26.078 40.467,44.177 25.517,44.177 25.517,34.844 16.105,34.844 16.105,44.177 8.73,44.177   8.732,26.078 3.687,26.078 24.596,5.168 " fill="#ee3e38" data-fill-palette-color="accent"></polygon></svg></g></svg></g><g><rect width="87.49019256829187" height="3.222393095704071" y="45.15991224610024" x="233.47428743170806" fill="#ee3e38" data-fill-palette-color="secondary"></rect><rect width="87.49019256829187" height="3.222393095704071" y="45.15991224610024" x="76.53311999999997" fill="#ee3e38" data-fill-palette-color="secondary"></rect></g></svg></g><defs></defs></svg><rect width="395.52" height="104.68493481520368" fill="none" stroke="none" visibility="hidden"></rect></g></svg></g></svg>